<svg xmlns="http://www.w3.org/2000/svg" xmlns:xlink="http://www.w3.org/1999/xlink"><symbol id="icon-close" viewBox="0 0 20 20"><g fill="#ffffff"><path d="M.293 18.291a1 1 0 101.414 1.414L10 11.413l8.292 8.292a1 1 0 101.414-1.414l-8.292-8.292 8.292-8.292A1 1 0 1018.291.293L9.999 8.585 1.707.293A1 1 0 10.293 1.707L8.585 10 .293 18.291z"/></g></symbol><symbol id="ok" viewBox="0 0 40 40"><g fill="none">
<path d="M20.1711 17.6428C21.3282 17.6428 22.2282 16.6785 22.2068 15.6285C22.2282 14.5785 21.3496 13.5928 20.1925 13.5928C19.0782 13.5928 18.1568 14.4928 18.1568 15.6071C18.1568 16.7213 19.0568 17.6428 20.1711 17.6428Z" fill="#F8FDFF"/>
<path d="M20 5C11.7286 5 5 11.7286 5 20C5 28.2929 11.7286 35 20 35C28.2928 35 34.9999 28.2714 34.9999 20C35.0214 11.7286 28.2928 5 20 5ZM20.2143 10.6786C22.9143 10.6786 25.1428 12.9071 25.1214 15.6286C25.1214 18.3714 22.8714 20.5786 20.1285 20.5357C17.4285 20.4929 15.2643 18.2857 15.2643 15.6071C15.2643 12.8857 17.4714 10.6786 20.2143 10.6786ZM25.7214 22.25C25.7214 22.2929 25.7 22.3143 25.7 22.3571C25.6357 22.7857 25.4214 23.1286 25.0571 23.3643C24.8214 23.5143 24.5643 23.6643 24.3071 23.7929C23.6643 24.1143 22.9785 24.3714 22.2714 24.5429C22.1857 24.5643 22.1857 24.5643 22.25 24.6286C22.6357 25.0143 23.0428 25.4214 23.4285 25.8071C23.9214 26.3 24.4357 26.8143 24.9285 27.3071C25.6357 28.0143 25.4428 29.1929 24.5428 29.6214C24.3928 29.7071 24.2214 29.7286 24.05 29.7714C23.9643 29.7714 23.8571 29.7714 23.7714 29.7714C23.75 29.7714 23.7285 29.7714 23.7285 29.75C23.3857 29.7071 23.1071 29.5357 22.85 29.3C21.9928 28.4429 21.1143 27.5643 20.2571 26.7071C20.1928 26.6429 20.1928 26.6429 20.1285 26.7071C19.25 27.5857 18.3928 28.4429 17.5143 29.3214C17.3643 29.4714 17.2143 29.5786 17.0214 29.6643C16.8928 29.7286 16.7428 29.75 16.6143 29.7714C16.5286 29.7714 16.4428 29.7714 16.3357 29.7714C16.2928 29.7714 16.2714 29.75 16.2286 29.75C15.65 29.6429 15.2643 29.3214 15.0928 28.7643C14.9214 28.2071 15.05 27.7143 15.4571 27.3071C15.8214 26.9429 16.1643 26.6 16.5286 26.2357C17.0643 25.7 17.6 25.1643 18.1143 24.65C18.1785 24.5857 18.1785 24.5857 18.0928 24.5643C18.0714 24.5643 18.0285 24.5429 18.0071 24.5429C17.0428 24.3071 16.1643 23.9214 15.3286 23.4071C14.8357 23.0857 14.6 22.6143 14.6643 22.0357C14.7714 20.9643 15.9714 20.3857 16.8714 20.9643C17.0428 21.0714 17.1928 21.1571 17.3857 21.2429C18.3714 21.7357 19.4214 21.95 20.5143 21.8857C21.05 21.8643 21.5857 21.7571 22.1214 21.5857C22.6357 21.4143 23.0857 21.1786 23.5571 20.9214C24.3285 20.4714 25.3357 20.8357 25.6357 21.6714C25.6785 21.8 25.7 21.9071 25.7214 22.0357C25.7214 22.1 25.7214 22.1643 25.7214 22.25Z" fill="#F8FDFF"/>
</g></symbol><symbol id="pinterest" viewBox="0 0 40 40"><g fill="none">
<path d="M19.9999 5C28.2847 5 35 11.7162 35 20.0001C35 28.2848 28.2847 35 19.9999 35C11.7152 35 5 28.2847 5 20.0001C5 11.7162 11.7153 5 19.9999 5Z" fill="#F8FDFF"/>
<path d="M20 10C14.4823 10 10 14.4823 10 20C10 25.5177 14.4823 30 20 30C25.5177 30 30 25.5177 30 20C30 14.4823 25.5177 10 20 10ZM20 10.8696C25.0477 10.8696 29.1304 14.9523 29.1304 20C29.1304 25.0477 25.0477 29.1304 20 29.1304C19.0767 29.1304 18.186 28.9922 17.3463 28.7381C17.7203 28.1128 18.2032 27.219 18.395 26.481C18.509 26.0434 18.9776 24.2587 18.9776 24.2587C19.2821 24.84 20.1719 25.332 21.1192 25.332C23.9383 25.332 25.9706 22.7394 25.9706 19.5177C25.9706 16.4289 23.4502 14.1185 20.2072 14.1185C16.1725 14.1185 14.0311 16.8264 14.0311 19.775C14.0311 21.1462 14.7604 22.8531 15.9282 23.3967C16.105 23.4791 16.2 23.4434 16.2407 23.2719C16.2719 23.1418 16.4297 22.5073 16.5005 22.2121C16.5232 22.1179 16.5122 22.0365 16.436 21.9438C16.0495 21.475 15.7396 20.6138 15.7396 19.8106C15.7396 17.7487 17.3006 15.7532 19.9601 15.7532C22.2564 15.7532 23.8646 17.3186 23.8646 19.5567C23.8646 22.0853 22.5879 23.8375 20.9265 23.8375C20.0089 23.8375 19.3219 23.0784 19.5423 22.1476C19.8065 21.0366 20.3167 19.8378 20.3167 19.0353C20.3167 18.3177 19.9316 17.7191 19.1338 17.7191C18.1958 17.7191 17.4423 18.6889 17.4423 19.989C17.4423 20.8162 17.7225 21.3765 17.7225 21.3765C17.7225 21.3765 16.7959 25.2941 16.6262 26.0233C16.4561 26.7519 16.5017 27.7332 16.5718 28.4638C13.2266 27.1098 10.8696 23.8345 10.8696 20C10.8696 14.9523 14.9523 10.8696 20 10.8696Z" fill="#041827"/>
</g></symbol><symbol id="vk" viewBox="0 0 40 40"><g fill="none">
<path d="M26.617 22.4544C25.3818 21.2726 25.2935 21.2726 26.3523 19.9091C27.6758 18.1819 29.4405 16.0002 27.8523 16.0002H24.9406C24.4112 16.0002 24.323 16.3638 24.1465 16.8184C23.4406 18.5455 22.0289 20.8181 21.4995 20.4545C20.9701 20.0909 21.2348 18.7273 21.2348 16.5457C21.323 16.2729 21.2348 16.0002 21.0583 15.8184C20.8819 15.6366 20.6172 15.4548 20.3525 15.4548C19.9113 15.3639 19.4702 15.273 19.029 15.273C17.3526 15.273 16.2056 16.0002 16.8232 16.0911C17.9702 16.2729 17.882 18.8182 17.6173 19.9091C17.1761 21.8181 15.4115 18.4546 14.6174 16.7275C14.5291 16.2729 14.1762 16.0002 13.735 16.0002H11.441C11.0881 16.0002 10.8234 16.0911 10.8234 16.3638C10.8234 16.8184 13.0292 21.2726 15.0585 23.5452C17.0879 25.7269 19.1172 25.5451 20.529 25.5451C20.7054 25.5451 20.8819 25.4542 20.9701 25.3633C21.0583 25.2724 21.1466 25.0906 21.1466 24.9088C21.1466 23.4543 21.676 22.7271 22.6465 23.727C23.7053 24.8179 23.97 25.5451 25.2935 25.5451H27.6758C28.2934 25.5451 28.4699 25.3633 28.4699 25.0906C28.5581 24.4543 27.4993 23.2725 26.617 22.4544ZM20.3525 5.00091C28.5581 5.18272 35.0873 12.0005 34.9991 20.2727C34.9109 28.5449 28.117 35.09 19.9113 34.9991C11.6175 34.9082 5 28.2722 5 20C5.08823 11.6369 11.9704 4.91001 20.3525 5.00091Z" fill="#F8FDFF"/>
</g></symbol></svg>